<svg width="707" height="366" viewBox="0 0 707 366" fill="none" xmlns="http://www.w3.org/2000/svg">
<path fill-rule="evenodd" clip-rule="evenodd" d="M413.605 127.562C428.291 127.562 440.197 139.432 440.197 154.075V210.889C440.197 225.532 428.291 237.402 413.605 237.402H293.311C278.625 237.402 266.72 225.532 266.72 210.889V154.075C266.72 139.432 278.625 127.562 293.311 127.562H413.605ZM319.164 168.805C315.376 168.805 312.305 171.867 312.305 175.644V189.321C312.305 193.098 315.376 196.16 319.164 196.16H332.882C336.67 196.16 339.74 199.221 339.74 202.998V216.676C339.74 220.453 342.811 223.514 346.599 223.514H360.317C364.105 223.514 367.176 220.453 367.176 216.676V202.998C367.176 199.221 370.247 196.16 374.035 196.16H387.753C391.541 196.16 394.611 193.098 394.611 189.321V175.644C394.611 171.867 391.541 168.805 387.753 168.805H374.035C370.247 168.805 367.176 171.867 367.176 175.644V189.321C367.176 193.098 364.105 196.16 360.317 196.16H346.599C342.811 196.16 339.74 193.098 339.74 189.321V175.644C339.74 171.867 336.67 168.805 332.882 168.805H319.164ZM346.599 141.45C342.811 141.45 339.74 144.512 339.74 148.289V161.966C339.74 165.743 342.811 168.805 346.599 168.805H360.317C364.105 168.805 367.176 165.743 367.176 161.966V148.289C367.176 144.512 364.105 141.45 360.317 141.45H346.599Z" fill="#111111"/>
<path fill-rule="evenodd" clip-rule="evenodd" d="M353.802 0.00149089L355.254 0.0039757C355.517 0.00141158 355.779 6.58064e-07 356.042 0C356.544 2.18888e-06 357.044 0.00507805 357.544 0.0144119C458.338 0.65238 548.967 23.1704 612.559 58.8254H614.435V59.8859C671.5 92.3874 706.286 135.577 706.286 182.977L706.278 184.161C705.773 225.484 678.829 263.557 633.772 294.067V294.407H633.27C569.541 337.354 469.849 365.23 357.536 365.94C357.039 365.949 356.541 365.954 356.042 365.954C355.796 365.954 355.549 365.952 355.304 365.95C354.859 365.951 354.413 365.951 353.968 365.952L353.385 365.954C353.352 365.954 353.318 365.954 353.284 365.953C353.237 365.954 353.19 365.954 353.143 365.954L350.859 365.95C237.685 365.579 137.142 337.623 73.0137 294.407H72.9983V294.396C27.6492 263.831 0.514635 225.632 0.00745443 184.161L0 182.977C0 135.443 34.9823 92.1433 92.3346 59.6106V58.8254H93.7271C158.243 22.6522 250.588 0 353.143 0H353.385L353.802 0.00149089ZM275.131 294.407C277.231 298.218 279.434 301.88 281.731 305.379C301.787 335.927 327.994 352.881 355.196 353.225C356.269 353.219 357.34 353.206 358.408 353.189C385.065 352.244 410.671 335.358 430.353 305.379C432.65 301.88 434.853 298.219 436.953 294.407H275.131ZM184.844 294.407C215.616 321.586 257.593 341.488 306.086 349.431C288.173 336.938 272.625 317.934 260.749 294.407H184.844ZM451.335 294.407C439.849 317.161 424.928 335.685 407.754 348.179C453.258 339.523 492.659 320.256 521.927 294.407H451.335ZM97.0811 294.407C101.02 296.67 105.089 298.891 109.286 301.065C145.427 319.791 189.939 334.465 239.87 343.417C211.163 331.172 186.096 314.427 166.25 294.407H97.0811ZM540.52 294.407C520.756 314.345 495.814 331.034 467.254 343.265C516.844 334.3 561.061 319.686 596.999 301.065C601.196 298.891 605.265 296.67 609.204 294.407H540.52ZM97.0811 71.5476C42.4522 102.927 12.7222 142.543 12.7222 182.977C12.7225 218.122 35.1822 252.648 76.9292 281.685H154.71C131.142 253.207 117.474 219.33 117.473 182.977L117.478 181.794C117.817 140.317 135.949 102.115 166.25 71.5476H97.0811ZM184.843 71.5476C150.57 101.818 130.196 141.116 130.196 182.977C130.196 219.193 145.446 253.491 171.753 281.685H254.873C252.406 275.832 250.153 269.751 248.129 263.467H261.536C263.707 269.796 266.122 275.879 268.758 281.685H443.326C445.962 275.879 448.376 269.796 450.547 263.467H463.954C461.93 269.751 459.678 275.832 457.212 281.685H535.018C561.324 253.491 576.575 219.193 576.575 182.977C576.575 141.116 556.2 101.818 521.928 71.5476H451.336C456.255 81.2927 460.543 91.8144 464.109 102.97H450.712C446.861 91.658 442.232 81.1263 436.953 71.5476H275.131C269.852 81.1263 265.223 91.6579 261.372 102.97H247.975C251.541 91.8143 255.829 81.2927 260.749 71.5476H184.843ZM540.52 71.5476C571.109 102.405 589.297 141.044 589.297 182.977L589.292 184.161C588.999 220.065 575.372 253.516 552.06 281.685H629.355C671.103 252.648 693.563 218.122 693.563 182.977C693.563 142.543 663.833 102.927 609.204 71.5476H540.52ZM239.869 22.5367C195.463 30.4981 155.343 42.9869 121.586 58.8254H180.086C197.298 44.3787 217.476 32.0884 239.869 22.5367ZM306.086 16.5225C265.518 23.1674 229.51 38.1825 200.808 58.8254H267.794C278.527 41.1343 291.525 26.6772 306.086 16.5225ZM355.182 12.7282C328.509 13.0718 302.794 29.3852 282.897 58.8254H429.186C409.662 29.937 384.537 13.6883 358.4 12.765C357.33 12.7472 356.257 12.7346 355.182 12.7282ZM407.753 17.7743C421.604 27.8507 433.989 41.8488 444.289 58.8254H505.963C478.938 39.3896 445.439 24.9434 407.753 17.7743ZM467.253 22.6883C489.506 32.2183 509.562 44.4546 526.684 58.8254H584.699C551.154 43.0866 511.326 30.6562 467.253 22.6883Z" fill="#111111"/>
</svg>
